# xmcd CD database generated by RipIT
#
# Track frame offsets:
# 150
# 15172
# 30999
# 54384
# 67998
# 83288
#
# Disc length: 1155 seconds
#
# Revision: 0
# Processed by: cddbd v1.5.2PL0 Copyright (c) Steve Scherf et al.
# Submitted via: RipIT 3.9.0 www.suwald.com/ripit/ripit.html on 2012-02-16 at 11:14
#
DISCID=2e048106
DTITLE=Van Bluus - White Boy Blue
DYEAR=2008
DGENRE=Blues
TTITLE0=I'm Ready
TTITLE1=All In The Name Of Love
TTITLE2=White Boy Blue
TTITLE3=Oh Leadbelly
TTITLE4=I'm On Your Side
TTITLE5=All In The Name Of Love (Choir Boy Version)
EXTD=
EXTT0=
EXTT1=
EXTT2=
EXTT3=
EXTT4=
EXTT5=
PLAYORDER=
